<svg width="162" height="20" viewBox="0 0 162 20" fill="none" xmlns="http://www.w3.org/2000/svg">
<mask id="mask0_157_4955" style="mask-type:luminance" maskUnits="userSpaceOnUse" x="0" y="3" width="12" height="17">
<path fill-rule="evenodd" clip-rule="evenodd" d="M0 3.63672H11.1133V19.021H0V3.63672Z" fill="white"/>
</mask>
<g mask="url(#mask0_157_4955)">
<path fill-rule="evenodd" clip-rule="evenodd" d="M5.91373 5.96383C7.02829 5.96383 7.99662 6.54639 8.52084 7.07139V10.9665C7.99662 11.4736 7.02829 12.0352 5.91373 12.0352C3.98251 12.0352 2.63307 10.7946 2.63307 9.01972C2.63307 7.22072 3.98251 5.96383 5.91373 5.96383V5.96383ZM8.52084 4.62216C7.8644 4.11583 6.84629 3.63672 5.34207 3.63672C2.24651 3.63672 -0.000488281 5.90083 -0.000488281 9.01972C-0.000488281 12.0655 2.29629 14.3623 5.34207 14.3623C6.53984 14.3623 7.64973 14.0154 8.52084 13.3761V14.0263C8.52084 16.4156 6.55462 16.6738 5.70996 16.6738C3.96851 16.6738 2.68207 15.8556 2.25896 15.5865L1.98518 15.4123L1.39251 17.8071L1.71607 17.9751C2.4114 18.3406 3.70485 19.0212 5.70996 19.0212C9.04196 19.0212 11.1132 16.9429 11.1132 13.5969V3.82105H8.52084V4.62216Z" fill="black"/>
</g>
<path fill-rule="evenodd" clip-rule="evenodd" d="M21.7676 3.63696C20.5846 3.63696 19.7174 4.09741 19.0781 5.07741C18.7514 4.12152 18.0086 3.63696 16.8637 3.63696C15.9133 3.63696 14.9201 3.93874 14.6222 4.20863L14.5366 4.28641L14.7217 6.43385L15.0445 6.23552C15.2794 6.09163 15.6877 5.92285 16.0665 5.92285C16.4616 5.92285 16.6911 6.0823 16.6911 6.89507V14.9754H19.2834L19.2787 8.69796C19.6334 6.92696 20.3466 6.06596 21.4604 6.06596C22.3198 6.06596 22.9483 6.3413 23.1241 6.61274L23.4336 7.09107L23.9555 4.5633L23.9081 4.48474C23.6498 4.06241 22.8884 3.63696 21.7676 3.63696" fill="black"/>
<path fill-rule="evenodd" clip-rule="evenodd" d="M29.1058 8.21378C29.343 6.96389 30.3463 5.78011 32.1663 5.78011C34.0276 5.78011 34.691 6.86278 34.691 7.87545C34.691 7.97033 34.6848 8.08856 34.6739 8.21378H29.1058ZM36.966 10.1738C37.0959 9.76156 37.2017 8.88656 37.2017 8.22311C37.2017 5.95667 35.8896 3.53467 32.2068 3.53467C28.8273 3.53467 26.375 6.01345 26.375 9.42867C26.375 13.0803 28.6236 15.2612 32.3911 15.2612C34.1559 15.2612 35.783 14.7277 36.9722 13.7578L37.1231 13.6349L36.0622 11.6959L35.8468 11.8569C35.3902 12.1999 34.1458 12.9956 32.4526 12.9956C30.5151 12.9956 29.3477 12.0778 29.0622 10.3363H36.9147L36.966 10.1738Z" fill="black"/>
<path fill-rule="evenodd" clip-rule="evenodd" d="M43.222 8.21378C43.4592 6.96389 44.4625 5.78011 46.2825 5.78011C48.1438 5.78011 48.8072 6.86278 48.8072 7.87545C48.8072 7.97033 48.801 8.08856 48.7901 8.21378H43.222ZM51.0822 10.1738C51.2121 9.76156 51.3179 8.88656 51.3179 8.22311C51.3179 5.95667 50.0058 3.53467 46.323 3.53467C42.9435 3.53467 40.4912 6.01345 40.4912 9.42867C40.4912 13.0803 42.7398 15.2612 46.5073 15.2612C48.2721 15.2612 49.8992 14.7277 51.0884 13.7578L51.2393 13.6349L50.1784 11.6959L49.963 11.8569C49.5064 12.1999 48.262 12.9956 46.5688 12.9956C44.6313 12.9956 43.4639 12.0778 43.1784 10.3363H51.0309L51.0822 10.1738Z" fill="black"/>
<path fill-rule="evenodd" clip-rule="evenodd" d="M67.2858 12.5599C66.9288 12.7777 66.5827 12.8936 66.2841 12.8936C65.9589 12.8936 65.6595 12.7754 65.6595 11.9214V8.59092C65.6595 5.48914 64.0666 3.63647 61.4004 3.63647C60.0051 3.63647 58.8057 4.1257 57.9556 5.02714V3.82081H55.3633V14.9749H57.9556V8.17792C58.3025 7.12092 59.2685 6.06547 60.6646 6.06547C62.1914 6.06547 63.0672 7.10536 63.0672 8.91759V12.3911C63.0672 14.2415 63.8815 15.1795 65.4868 15.1795C66.3844 15.1795 67.1987 14.9111 67.6623 14.6607L67.7961 14.5876L67.6086 12.3631L67.2858 12.5599Z" fill="black"/>
<path fill-rule="evenodd" clip-rule="evenodd" d="M84.8384 12.0795C84.3251 12.4521 83.4073 12.8526 82.6054 12.8526C81.6075 12.8526 81.1229 12.2607 81.1229 11.0427V5.96385H85.2918V3.82107H81.1229V1.10352H78.7958L78.5508 3.82107H76.5278V5.96385H78.5306V11.4511C78.5306 13.8202 79.7852 15.179 81.9723 15.179C83.7145 15.179 85.0118 14.605 85.7935 14.1227L85.9631 14.0185L85.0772 11.9068L84.8384 12.0795Z" fill="black"/>
<path fill-rule="evenodd" clip-rule="evenodd" d="M101.33 12.5544C100.893 12.7955 100.6 12.8935 100.319 12.8935C99.9946 12.8935 99.6944 12.776 99.6944 11.922V8.5908C99.6944 5.48902 98.1023 3.63713 95.4353 3.63713C94.0251 3.63713 92.8266 4.11702 91.9913 5.00291V0.000244141H89.3989V14.9748H91.9913V8.17858C92.3374 7.1208 93.3041 6.06613 94.7003 6.06613C96.2263 6.06613 97.102 7.10524 97.102 8.91747V12.3918C97.102 14.2414 97.9164 15.1794 99.5217 15.1794C100.449 15.1794 101.255 14.9102 101.701 14.659L101.832 14.5851L101.646 12.3809L101.33 12.5544Z" fill="black"/>
<path fill-rule="evenodd" clip-rule="evenodd" d="M116.832 12.5573C116.429 12.7898 116.113 12.8933 115.805 12.8933C115.512 12.8933 115.201 12.8178 115.201 11.9218V3.82129H112.608V11.0321C112.388 11.4902 111.627 12.751 109.92 12.751C108.236 12.751 107.518 11.9094 107.518 9.93929V3.82129H104.925V10.2457C104.925 13.381 106.471 15.1792 109.164 15.1792C110.71 15.1792 111.963 14.7078 112.822 13.8087C113.168 14.7187 113.909 15.1792 115.028 15.1792C115.78 15.1792 116.642 14.9754 117.224 14.6604L117.36 14.5873L117.147 12.3745L116.832 12.5573Z" fill="black"/>
<path fill-rule="evenodd" clip-rule="evenodd" d="M139.918 12.5575C139.533 12.7807 139.188 12.8935 138.891 12.8935C138.593 12.8935 138.287 12.7784 138.287 11.9221V8.59083C138.287 5.44317 136.78 3.63717 134.151 3.63717C132.513 3.63717 131.136 4.33328 130.305 5.56372C129.668 4.25472 128.488 3.61694 126.713 3.61694C125.365 3.61694 124.201 4.09761 123.371 4.98272V3.8215H120.778V14.9748H123.371V8.09694C123.541 7.57739 124.191 6.06617 125.957 6.06617C127.858 6.06617 128.257 7.60617 128.257 8.89728V14.9748H130.849V8.07439C131.152 7.09672 131.969 6.06617 133.374 6.06617C135.393 6.06617 135.695 7.85272 135.695 8.9175V12.3918C135.695 14.2414 136.509 15.1794 138.115 15.1794C138.867 15.1794 139.772 14.9655 140.314 14.6591L140.446 14.5836L140.233 12.3747L139.918 12.5575Z" fill="black"/>
<path fill-rule="evenodd" clip-rule="evenodd" d="M152.18 9.38778C152.18 11.4606 150.862 12.8528 148.899 12.8528C147.77 12.8528 146.796 12.2912 146.272 11.7841V7.07311C146.834 6.52478 147.796 5.964 148.899 5.964C150.862 5.964 152.18 7.33989 152.18 9.38778M149.471 3.63689C148.247 3.63689 147.131 3.99311 146.272 4.64878V0H143.68V14.9753H146.272V14.1314C146.934 14.6704 147.959 15.1791 149.471 15.1791C152.628 15.1791 154.834 12.7976 154.834 9.38778C154.834 6.00133 152.628 3.63689 149.471 3.63689" fill="black"/>
<mask id="mask1_157_4955" style="mask-type:luminance" maskUnits="userSpaceOnUse" x="158" y="11" width="4" height="5">
<path fill-rule="evenodd" clip-rule="evenodd" d="M158.43 11.8923H161.778V15.2197H158.43V11.8923Z" fill="white"/>
</mask>
<g mask="url(#mask1_157_4955)">
<path fill-rule="evenodd" clip-rule="evenodd" d="M160.093 11.8923C159.051 11.8923 158.43 12.5146 158.43 13.5568C158.43 14.6138 159.036 15.2197 160.093 15.2197C161.164 15.2197 161.778 14.6138 161.778 13.5568C161.778 12.5146 161.148 11.8923 160.093 11.8923" fill="black"/>
</g>
</svg>
